<svg width="1200" height="800" viewBox="0 0 1200 800" fill="none" xmlns="http://www.w3.org/2000/svg">
  <defs>
    <linearGradient id="bg" x1="0" y1="0" x2="1200" y2="800" gradientUnits="userSpaceOnUse">
      <stop stop-color="#1A1F3A"/>
      <stop offset="1" stop-color="#0C1022"/>
    </linearGradient>
    <linearGradient id="accent" x1="335" y1="150" x2="865" y2="650" gradientUnits="userSpaceOnUse">
      <stop stop-color="#E879F9"/>
      <stop offset="0.5" stop-color="#A855F7"/>
      <stop offset="1" stop-color="#6366F1"/>
    </linearGradient>
  </defs>

  <rect width="1200" height="800" rx="36" fill="url(#bg)"/>

  <rect x="210" y="110" width="780" height="580" rx="24" stroke="#2D365D" stroke-width="2"/>

  <rect x="335" y="150" width="530" height="500" rx="20" fill="#151A33" stroke="#2D365D" stroke-width="2"/>

  <circle cx="600" cy="305" r="95" fill="#252D55"/>
  <path d="M430 560C430 465.559 506.559 389 601 389H599C693.441 389 770 465.559 770 560V585H430V560Z" fill="#252D55"/>

  <rect x="440" y="210" width="320" height="430" rx="18" stroke="url(#accent)" stroke-width="5"/>

  <rect x="440" y="210" width="320" height="18" fill="url(#accent)"/>
  <rect x="440" y="622" width="320" height="18" fill="url(#accent)"/>
  <rect x="440" y="210" width="18" height="430" fill="url(#accent)"/>
  <rect x="742" y="210" width="18" height="430" fill="url(#accent)"/>

  <circle cx="440" cy="210" r="10" fill="#F5D0FE"/>
  <circle cx="760" cy="210" r="10" fill="#F5D0FE"/>
  <circle cx="440" cy="640" r="10" fill="#F5D0FE"/>
  <circle cx="760" cy="640" r="10" fill="#F5D0FE"/>

  <text x="600" y="95" fill="#C7D2FE" font-size="28" font-family="Inter, system-ui, sans-serif" text-anchor="middle">
    AI Crop Suggestion Preview
  </text>
</svg>
